<svg id="Layer_1" data-name="Layer 1" xmlns="http://www.w3.org/2000/svg"  viewBox="0 0 1413 683">
  <defs>
    <style>
      .cls-1 {
        fill: #000;
      }
    </style>
  </defs>
  <path class="cls-1" d="M106.9248,264.6609l52.6857-37.173c14.179-10.0042,28.0595-20.5024,44.0965-27.3966l-10.5088,4.4348a98.0875,98.0875,0,0,1,22.594-6.318L204.0974,199.78a87.6822,87.6822,0,0,1,21.2774-.12L213.68,198.0886a79.88,79.88,0,0,1,19.4379,5.3306l-10.5088-4.4347a66.8016,66.8016,0,0,1,12.18,7.03l-8.9035-6.8788a53.8428,53.8428,0,0,1,8.0323,7.8228l-6.8787-8.9035a58.7425,58.7425,0,0,1,7.0158,11.9138L229.62,199.46c4.3764,10.5868,6.5956,22.2357,13.1821,31.8047,11.1924,16.26,27.809,26.2746,47.1069,29.9077,22.0154,4.1448,44.1261,7.2572,66.0143,12.1626a721.7475,721.7475,0,0,1,121.54,38.3115l-10.5088-4.4348a527.8335,527.8335,0,0,1,66.6148,33.5755c10.9389,6.5893,21.3762,13.9428,32.2177,20.6818a206.2868,206.2868,0,0,0,41.9834,19.9389c23.4756,8.0312,49.6124,10.9867,74.3469,10.5525,27.8129-.4881,54.8388-5.57,80.0367-17.4218,16.1946-7.6169,29.3913-20.4679,39.1716-35.2871,7.4764-11.3284,11.0154-24.5574,19.2415-35.5049l-6.8787,8.9034c7.3141-9.3116,16.1423-17.1368,25.4635-24.3836l-8.9035,6.8788c9.8514-7.5218,20.1664-14.3859,30.5988-21.0694,9.5233-6.1011,18.9666-12.4757,29.4044-16.9276l-10.5088,4.4348a83.23,83.23,0,0,1,18.789-4.968l-11.6949,1.5714c14.218-1.7381,28.6953-1.245,42.99-.9878a369.7706,369.7706,0,0,1,40.3521,2.5787l-11.6949-1.5714c11.4556,1.5805,22.7551,3.9782,33.4563,8.4544l-10.5089-4.4348c15.4362,6.8647,29.0091,17.1943,45.9916,20.5485,19.5211,3.8557,37.7013,3.339,57.2181-.4556,14.1277-2.7467,29.138-8.1585,40.9714-16.3966,10.3375-7.1967,17.5741-14.0682,24.7612-24.4223,4.5419-6.5433,7.3623-14.05,12.0441-20.5115l-6.8787,8.9035a58.2833,58.2833,0,0,1,9.8359-9.567l-8.9034,6.8788c7.745-5.7748,16.3231-10.1251,25.1694-13.9453l-10.5088,4.4348a347.2684,347.2684,0,0,1,33.1391-11.7074c11.5048-3.5153,23.1464-7.3812,35.0394-9.313l-11.6948,1.5714a61.3121,61.3121,0,0,1,15.2414-.197l-11.6948-1.5715c14.0844,2.1407,27.9852,6.5434,41.79,10.0134l44.0961,11.0842c22.284,5.6014,48.7581-7.2047,54.1154-30.7258,5.1967-22.8156-6.85-48.1139-30.7258-54.1155q-35.7536-8.9871-71.5071-17.9743c-13.5226-3.3945-27.3648-6.13-41.3151-4.4976-14.0825,1.6474-27.0811,5.0362-40.6035,9.0423-22.1208,6.5533-44.8418,13.9466-64.9592,25.3969-9.7032,5.5227-19.4683,12.3331-26.8713,20.729a102.5537,102.5537,0,0,0-13.39,18.5605c-2.7851,5.12-5.2111,10.2576-8.7729,14.911l6.8788-8.9035a40.2881,40.2881,0,0,1-5.4,5.2131l8.9035-6.8787a66.5934,66.5934,0,0,1-14.0825,8.0208l10.5088-4.4348a102.7071,102.7071,0,0,1-24.65,6.5569l11.6948-1.5715a94.973,94.973,0,0,1-24.4152.029l11.6949,1.5714a68.5383,68.5383,0,0,1-14.82-4.0217l10.5088,4.4348a130.1551,130.1551,0,0,1-13.0593-6.9487,168.6356,168.6356,0,0,0-23.0947-10.8352,128.9741,128.9741,0,0,0-28.7719-7.3368c-25.6455-3.8108-51.2152-4.8793-77.1134-4.7441-14.84.0775-30.3417.973-44.6026,5.2623-12.6522,3.8054-24.6367,9.8237-35.795,16.8295-21.5883,13.5541-43.365,27.5542-62.2836,44.7438-10.2229,9.2887-19.6967,20.35-26.45,32.4051-5.5,9.8191-8.83,20.5878-15.5688,29.7258l6.8788-8.9034a56.1233,56.1233,0,0,1-9.114,9.1384l8.9034-6.8788A73.2156,73.2156,0,0,1,714.48,300.02l10.5088-4.4348a133.6818,133.6818,0,0,1-32.0826,8.2739l11.6949-1.5715a206.7373,206.7373,0,0,1-54.2058-.1779l11.6949,1.5714a160.1287,160.1287,0,0,1-38.1612-9.8419l10.5088,4.4347c-20.2781-8.5941-37.703-22.1585-56.4614-33.458a509.3291,509.3291,0,0,0-55.5231-28.7662A757.233,757.233,0,0,0,382.597,189.236q-19.8913-4.5423-39.99-8.1c-13.6277-2.4159-28.4978-3.0629-41.457-8.1459l10.5088,4.4347a35.06,35.06,0,0,1-5.0263-2.8349l8.9035,6.8788a27.891,27.891,0,0,1-3.64-3.5151l6.8788,8.9035a29.5889,29.5889,0,0,1-3.0589-5.2491l4.4347,10.5088c-4.7307-11.78-7.5773-24.4239-14.7182-35.1532-8.6405-12.9824-19.62-24.0545-33.4421-31.5364-27.0729-14.6545-58.6962-17.755-88.4514-10.3356C161.57,120.57,142.4009,132.3265,124.15,145.2037L62.5175,188.6892c-9.5466,6.7357-17.021,14.6852-20.217,26.291-2.9,10.5305-1.5906,24.5527,4.4348,33.8985,6.056,9.3933,15.0738,17.6621,26.291,20.217,10.9754,2.5,24.3317,2.3152,33.8985-4.4348Z"/>
</svg>
